<?xml version="1.0" encoding="utf-8"?>
<!-- Generator: Adobe Illustrator 17.0.0, SVG Export Plug-In . SVG Version: 6.00 Build 0)  -->
<!DOCTYPE svg PUBLIC "-//W3C//DTD SVG 1.1//EN" "http://www.w3.org/Graphics/SVG/1.1/DTD/svg11.dtd">
<svg version="1.1" id="Layer_1" xmlns="http://www.w3.org/2000/svg" xmlns:xlink="http://www.w3.org/1999/xlink" x="0px" y="0px"
	 width="800px" height="1280px" viewBox="0 0 800 1280" enable-background="new 0 0 800 1280" xml:space="preserve">
<g>
	<defs>
		<rect id="SVGID_3_" x="38" y="7" width="724" height="1267"/>
	</defs>
	<clipPath id="SVGID_1_">
		<use xlink:href="#SVGID_3_"  overflow="visible"/>
	</clipPath>
	<g clip-path="url(#SVGID_1_)">
		<g>
			<path fill="none" d="M407.86,1307.168c45.607,0,88.064-14.168,123.312-36.168H285.049
				C320.021,1293,362.253,1307.168,407.86,1307.168z"/>
			<path fill="#871D25" d="M624.035,163.05L767,162.855V4H529.395C583.659,40,619.483,97.027,624.035,163.05z"/>
			<path fill="#871D25" d="M188.081,1110.475L43,1109.443V1271h242.049C230.576,1236,192.643,1176.651,188.081,1110.475z"/>
			<path fill="#871D25" d="M282.512,4H43v158.85l141.949,0.2C189.5,97.027,227.819,40,282.512,4z"/>
			<path fill="#97F3FE" d="M625.096,163.05C620.545,97.027,584.781,40,530.517,4H283.634c-54.693,36-92.073,93.027-96.624,159.05
				L46,162.85v946.593l144.142,1.032c4.562,66.177,41.556,125.525,96.029,160.525h246.122c54.901-35,91.372-94.349,95.934-160.525
				L768,1109.449V162.855L625.096,163.05z"/>
			<path fill="#871D25" d="M531.171,1271H767v-161.551l-139.833,1.026C622.605,1176.651,586.073,1236,531.171,1271z"/>
			<path d="M409.411,1236.142c-77.784,0-145.835-55.142-157.243-126.142h-61.83c7.351,107,102.523,196.178,216.987,196.178
				s213.367-89.672,220.718-195.93l-69.049-0.962C547.585,1179.127,487.195,1236.142,409.411,1236.142z"/>
			<path fill="none" stroke="#E6E6E6" stroke-width="10" stroke-miterlimit="10" d="M-123.385,1112.01l312.54,1.109
				c7.491,108.663,102.061,196.171,218.705,196.171s212.692-87.509,220.183-196.171l309.408-1.109"/>
			<path d="M404.654,37.507C482.438,37.507,550.488,93,561.897,165h61.83C616.376,60,521.204-32.528,406.74-32.528
				S193.373,56.468,186.023,162.726l69.049,1.299C266.48,94.185,326.87,37.507,404.654,37.507z"/>
			<path fill="none" stroke="#E6E6E6" stroke-width="10" stroke-miterlimit="10" d="M937.451,158.706l-312.54-1.109
				C617.419,48.935,522.849-38.574,406.205-38.574S193.513,48.935,186.023,157.598l-309.408,1.109"/>
			<g>
				<rect x="81" y="92" fill="#FFFFFF" width="51" height="11"/>
				<rect x="81" y="108" fill="#FFFFFF" width="51" height="11"/>
				<rect x="81" y="124" fill="#FFFFFF" width="51" height="11"/>
			</g>
			<g>
				<path fill="#FFFFFF" d="M676.005,85.3c-7.28,7.28-7.28,19.084,0,26.364c7.28,7.28,19.084,7.28,26.364,0s7.28-19.084,0-26.364
					C695.089,78.02,683.285,78.02,676.005,85.3z M699.825,109.121c-5.875,5.875-15.401,5.875-21.276,0
					c-5.875-5.875-5.875-15.401,0-21.276c5.875-5.875,15.401-5.875,21.276,0C705.701,93.719,705.701,103.245,699.825,109.121z"/>
				
					<rect x="709.488" y="105.091" transform="matrix(0.7071 -0.7071 0.7071 0.7071 122.4484 539.7644)" fill="#FFFFFF" width="6.579" height="33.966"/>
			</g>
		</g>
		<rect x="536" y="951" fill="#29ABE2" stroke="#0071BC" stroke-width="2" stroke-miterlimit="10" width="183" height="59"/>
		<circle fill="none" stroke="#000000" stroke-miterlimit="10" cx="407.033" cy="194.027" r="102.072"/>
		<text transform="matrix(1 0 0 1 293.1387 347.0439)" font-family="'MyriadPro-Bold'" font-size="34.8152">No. 25 Pikachu</text>
		<rect x="180.773" y="715.268" fill="none" width="452.597" height="146.281"/>
		<text transform="matrix(1 0 0 1 186.0078 732.1221)"><tspan x="0" y="0" font-family="'MyriadPro-Semibold'" font-size="23.7376">It’s the evolved form of Pichu. Pikachu&apos;s tail </tspan><tspan x="0.604" y="28.485" font-family="'MyriadPro-Semibold'" font-size="23.7376">is sometimes struck by lightning as it raises </tspan><tspan x="79.745" y="56.971" font-family="'MyriadPro-Semibold'" font-size="23.7376">it to check its surroundings.</tspan></text>
		<text transform="matrix(1 0 0 1 289.6357 460.4204)" font-family="'MyriadPro-Bold'" font-size="31.6502">Mouse Pokémon</text>
		<g>
			<g>
				<g>
					<rect x="88" y="586" fill="#ED1C24" stroke="#C1272D" stroke-width="2" stroke-miterlimit="10" width="71" height="41"/>
					<g>
						<path d="M109.87,595.062v8.546h9.022v-8.546h3.894v21.336h-3.894v-9.402h-9.022v9.402h-3.894v-21.336H109.87z"/>
						<path d="M127.245,595.347c1.394-0.253,3.324-0.444,5.951-0.444c2.85,0,4.939,0.601,6.301,1.742
							c1.266,1.045,2.089,2.721,2.089,4.717c0,2.026-0.634,3.704-1.836,4.843c-1.552,1.552-3.989,2.279-6.743,2.279
							c-0.729,0-1.394-0.032-1.901-0.127v8.041h-3.862V595.347z M131.107,605.287c0.476,0.127,1.108,0.158,1.901,0.158
							c2.912,0,4.684-1.423,4.684-3.925c0-2.374-1.646-3.639-4.336-3.639c-1.077,0-1.836,0.094-2.249,0.19V605.287z"/>
					</g>
				</g>
				<g>
					<rect x="170" y="586" fill="#FBB03B" stroke="#F7931E" stroke-width="2" stroke-miterlimit="10" width="71" height="41"/>
					<g>
						<path d="M187.07,610.351l-1.836,6.047h-4.021l6.838-21.336h4.97l6.933,21.336h-4.179l-1.932-6.047H187.07z M193.179,607.407
							l-1.677-5.254c-0.413-1.298-0.76-2.754-1.077-3.989h-0.063c-0.317,1.235-0.634,2.723-1.012,3.989l-1.647,5.254H193.179z"/>
						<path d="M204.445,598.322h-6.078v-3.259h16.113v3.259h-6.141v18.077h-3.893V598.322z"/>
						<path d="M216.977,595.062h3.862v9.813h0.096c0.507-0.824,1.045-1.584,1.552-2.312l5.571-7.501h4.812l-7.345,9.086l7.82,12.251
							h-4.559l-6.046-9.783l-1.901,2.28v7.503h-3.862V595.062z"/>
					</g>
				</g>
				<g>
					<rect x="253" y="586" fill="#D9E021" stroke="#FCEE21" stroke-width="2" stroke-miterlimit="10" width="71" height="41"/>
					<g>
						<path d="M262.561,595.347c1.711-0.284,3.894-0.444,6.205-0.444c3.989,0,6.743,0.824,8.707,2.47
							c2.057,1.678,3.323,4.21,3.323,7.851c0,3.799-1.297,6.648-3.323,8.484c-2.122,1.93-5.509,2.912-9.656,2.912
							c-2.279,0-3.989-0.127-5.256-0.284V595.347z M266.455,613.422c0.538,0.096,1.362,0.096,2.153,0.096
							c5.064,0.031,8.072-2.754,8.072-8.168c0.032-4.717-2.691-7.407-7.565-7.407c-1.235,0-2.122,0.094-2.66,0.221V613.422z"/>
						<path d="M296.113,606.933h-8.041v6.268h8.991v3.198h-12.886v-21.336h12.41v3.196h-8.515v5.509h8.041V606.933z"/>
						<path d="M300.478,595.062h12.315v3.196h-8.421v5.89h7.851v3.196h-7.851v9.055h-3.894V595.062z"/>
					</g>
				</g>
				<g>
					<rect x="540" y="586" fill="#FF7BAC" stroke="#FF00FF" stroke-width="2" stroke-miterlimit="10" width="72" height="41"/>
					<g>
						<path d="M550.256,612.217c1.266,0.728,3.165,1.362,5.16,1.362c2.5,0,3.893-1.171,3.893-2.913c0-1.613-1.076-2.564-3.799-3.545
							c-3.513-1.266-5.761-3.134-5.761-6.205c0-3.482,2.913-6.141,7.534-6.141c2.312,0,4.021,0.507,5.129,1.077l-0.95,3.134
							c-0.759-0.413-2.247-1.014-4.241-1.014c-2.47,0-3.547,1.329-3.547,2.564c0,1.647,1.235,2.406,4.085,3.514
							c3.703,1.392,5.508,3.261,5.508,6.332c0,3.418-2.596,6.395-8.104,6.395c-2.247,0-4.59-0.634-5.761-1.331L550.256,612.217z"/>
						<path d="M566.776,595.407c1.394-0.253,3.324-0.444,5.951-0.444c2.85,0,4.939,0.601,6.301,1.742
							c1.266,1.045,2.089,2.721,2.089,4.717c0,2.026-0.634,3.704-1.836,4.843c-1.552,1.552-3.989,2.279-6.743,2.279
							c-0.729,0-1.394-0.032-1.901-0.127v8.041h-3.862V595.407z M570.638,605.347c0.476,0.127,1.108,0.158,1.901,0.158
							c2.912,0,4.684-1.423,4.684-3.925c0-2.374-1.646-3.639-4.336-3.639c-1.077,0-1.836,0.094-2.249,0.19V605.347z"/>
						<path d="M584.468,595.407c1.711-0.284,3.894-0.444,6.205-0.444c3.989,0,6.744,0.824,8.707,2.47
							c2.057,1.678,3.323,4.21,3.323,7.851c0,3.799-1.297,6.648-3.323,8.484c-2.122,1.93-5.509,2.912-9.656,2.912
							c-2.279,0-3.989-0.127-5.256-0.284V595.407z M588.363,613.482c0.538,0.096,1.362,0.096,2.153,0.096
							c5.064,0.031,8.072-2.754,8.072-8.168c0.032-4.717-2.691-7.407-7.565-7.407c-1.235,0-2.122,0.094-2.66,0.221V613.482z"/>
					</g>
				</g>
				<g>
					<rect x="335" y="586" fill="#29ABE2" stroke="#0071BC" stroke-width="2" stroke-miterlimit="10" width="94" height="41"/>
					<g>
						<path d="M345.292,612.034c1.266,0.728,3.165,1.362,5.16,1.362c2.5,0,3.893-1.171,3.893-2.913c0-1.613-1.076-2.564-3.799-3.545
							c-3.513-1.266-5.761-3.134-5.761-6.205c0-3.482,2.913-6.141,7.534-6.141c2.312,0,4.021,0.507,5.129,1.077l-0.95,3.134
							c-0.759-0.413-2.247-1.014-4.241-1.014c-2.47,0-3.547,1.329-3.547,2.564c0,1.647,1.235,2.406,4.085,3.514
							c3.703,1.392,5.508,3.261,5.508,6.332c0,3.419-2.596,6.395-8.104,6.395c-2.247,0-4.59-0.634-5.761-1.331L345.292,612.034z"/>
						<path d="M361.18,614.124c0-1.456,1.012-2.5,2.406-2.5c1.423,0,2.405,1.012,2.405,2.5c0,1.425-0.949,2.5-2.405,2.5
							C362.161,616.624,361.18,615.549,361.18,614.124z"/>
						<path d="M373.556,610.229l-1.836,6.047h-4.021l6.838-21.336h4.97l6.933,21.336h-4.179l-1.932-6.047H373.556z M379.665,607.285
							l-1.677-5.254c-0.413-1.298-0.76-2.754-1.077-3.989h-0.063c-0.317,1.235-0.634,2.723-1.012,3.989l-1.647,5.254H379.665z"/>
						<path d="M390.931,598.2h-6.078v-3.259h16.113v3.259h-6.141v18.077h-3.893V598.2z"/>
						<path d="M403.463,594.94h3.862v9.813h0.096c0.507-0.824,1.045-1.584,1.552-2.312l5.571-7.501h4.812l-7.345,9.086l7.82,12.251
							h-4.559l-6.046-9.783l-1.901,2.279v7.503h-3.862V594.94z"/>
					</g>
				</g>
				<g>
					<rect x="439" y="586" fill="#8CC63F" stroke="#009245" stroke-width="2" stroke-miterlimit="10" width="92" height="41"/>
					<g>
						<path d="M448.794,612.034c1.267,0.728,3.165,1.362,5.162,1.362c2.5,0,3.891-1.171,3.891-2.913
							c0-1.613-1.076-2.564-3.799-3.545c-3.511-1.266-5.761-3.134-5.761-6.205c0-3.482,2.915-6.141,7.535-6.141
							c2.312,0,4.021,0.507,5.128,1.077l-0.949,3.134c-0.76-0.413-2.247-1.014-4.244-1.014c-2.466,0-3.545,1.329-3.545,2.564
							c0,1.647,1.236,2.406,4.086,3.514c3.703,1.392,5.508,3.261,5.508,6.332c0,3.419-2.596,6.395-8.104,6.395
							c-2.247,0-4.59-0.634-5.761-1.331L448.794,612.034z"/>
						<path d="M464.684,614.124c0-1.456,1.011-2.5,2.405-2.5c1.425,0,2.405,1.012,2.405,2.5c0,1.425-0.949,2.5-2.405,2.5
							C465.664,616.624,464.684,615.549,464.684,614.124z"/>
						<path d="M472.785,595.225c1.709-0.284,3.894-0.444,6.203-0.444c3.99,0,6.744,0.824,8.707,2.47
							c2.059,1.678,3.323,4.21,3.323,7.851c0,3.799-1.295,6.648-3.323,8.484c-2.12,1.93-5.508,2.912-9.656,2.912
							c-2.278,0-3.987-0.127-5.254-0.284V595.225z M476.68,613.3c0.538,0.096,1.36,0.096,2.151,0.096
							c5.066,0.031,8.073-2.754,8.073-8.168c0.031-4.717-2.692-7.407-7.566-7.407c-1.233,0-2.12,0.094-2.658,0.221V613.3z"/>
						<path d="M506.336,606.811h-8.039v6.268h8.991v3.198h-12.886V594.94h12.41v3.196h-8.515v5.509h8.039V606.811z"/>
						<path d="M510.701,594.94h12.317v3.196h-8.423v5.89h7.851v3.196h-7.851v9.055h-3.894V594.94z"/>
					</g>
				</g>
				<g>
					<rect x="621" y="586" fill="#B3B3B3" stroke="#808080" stroke-width="2" stroke-miterlimit="10" width="106" height="41"/>
					<g>
						<path d="M637.249,598.2h-6.078v-3.259h16.113v3.259h-6.141v18.077h-3.893V598.2z"/>
						<path d="M667.825,605.386c0,7.155-4.336,11.238-10.224,11.238c-6.015,0-9.815-4.59-9.815-10.858
							c0-6.553,4.115-11.175,10.13-11.175C664.153,594.591,667.825,599.308,667.825,605.386z M651.901,605.703
							c0,4.338,2.185,7.787,5.92,7.787c3.768,0,5.888-3.482,5.888-7.945c0-4.021-1.994-7.82-5.888-7.82
							C653.959,597.725,651.901,601.303,651.901,605.703z"/>
						<path d="M674.405,598.2h-6.078v-3.259h16.113v3.259h-6.141v18.077h-3.893V598.2z"/>
						<path d="M688.901,610.229l-1.836,6.047h-4.021l6.838-21.336h4.97l6.933,21.336h-4.179l-1.932-6.047H688.901z M695.01,607.285
							l-1.677-5.254c-0.413-1.298-0.76-2.754-1.077-3.989h-0.063c-0.317,1.235-0.634,2.723-1.012,3.989l-1.647,5.254H695.01z"/>
						<path d="M704.756,594.94h3.894v18.075h8.769v3.261h-12.663V594.94z"/>
					</g>
				</g>
			</g>
			<text transform="matrix(1 0 0 1 102.1714 663.585)" font-family="'MyriadPro-Semibold'" font-size="31.6502">35</text>
			<text transform="matrix(1 0 0 1 193.4277 663.585)" font-family="'MyriadPro-Semibold'" font-size="31.6502">55</text>
			<text transform="matrix(1 0 0 1 270.8193 663.585)" font-family="'MyriadPro-Semibold'" font-size="31.6502">30</text>
			<text transform="matrix(1 0 0 1 367.8887 663.5859)" font-family="'MyriadPro-Semibold'" font-size="31.6502">50</text>
			<text transform="matrix(1 0 0 1 467.2031 663.585)" font-family="'MyriadPro-Semibold'" font-size="31.6502">40</text>
			<text transform="matrix(1 0 0 1 558.4609 663.585)" font-family="'MyriadPro-Semibold'" font-size="31.6502">90</text>
			<text transform="matrix(1 0 0 1 648.4688 663.585)" font-family="'MyriadPro-Semibold'" font-size="31.6502">300</text>
		</g>
		<g>
			<text transform="matrix(1 0 0 1 296.1719 514.98)"><tspan x="0" y="0" font-family="'MyriadPro-Semibold'" font-size="31.6502">Height:   1’04’’</tspan><tspan x="-16.031" y="37.98" font-family="'MyriadPro-Semibold'" font-size="31.6502">Weight:  13.2lbs.</tspan></text>
		</g>
		<text transform="matrix(1 0 0 1 81.2656 893.1992)" font-family="'MyriadPro-Semibold'" font-size="31.6502">Abilities</text>
		<g>
			<text transform="matrix(1 0 0 1 81.2666 967.5781)"><tspan x="0" y="0" font-family="'MyriadPro-Semibold'" font-size="23.7376">Static</tspan><tspan x="0" y="28.485" font-family="'MyriadPro-Semibold'" font-size="23.7376">Lightning Rod</tspan></text>
		</g>
		<line fill="none" stroke="#000000" stroke-width="3" stroke-miterlimit="10" x1="67" y1="908.5" x2="400" y2="908.5"/>
		<text transform="matrix(1 0 0 1 562.5508 989.5791)" font-family="'MyriadPro-Semibold'" font-size="31.6502">Evolution</text>
	</g>
</g>
</svg>
