<?xml version="1.0" encoding="utf-8"?>
<!-- Generator: Adobe Illustrator 17.0.0, SVG Export Plug-In . SVG Version: 6.00 Build 0)  -->
<!DOCTYPE svg PUBLIC "-//W3C//DTD SVG 1.1//EN" "http://www.w3.org/Graphics/SVG/1.1/DTD/svg11.dtd">
<svg version="1.1"
	 id="svg3009" sodipodi:docname="Xbox_One_logo.svg" inkscape:version="0.48.4 r9939" xmlns:cc="http://creativecommons.org/ns#" xmlns:rdf="http://www.w3.org/1999/02/22-rdf-syntax-ns#" xmlns:svg="http://www.w3.org/2000/svg" xmlns:dc="http://purl.org/dc/elements/1.1/" xmlns:sodipodi="http://sodipodi.sourceforge.net/DTD/sodipodi-0.dtd" xmlns:inkscape="http://www.inkscape.org/namespaces/inkscape"
	 xmlns="http://www.w3.org/2000/svg" xmlns:xlink="http://www.w3.org/1999/xlink" x="0px" y="0px" width="110.831px"
	 height="34.083px" viewBox="11.667 1.25 110.831 34.083" enable-background="new 11.667 1.25 110.831 34.083" xml:space="preserve"
	>
<sodipodi:namedview  inkscape:pageopacity="0" inkscape:current-layer="svg3009" inkscape:window-maximized="1" inkscape:window-y="-8" inkscape:window-x="-8" inkscape:window-height="838" inkscape:window-width="1600" inkscape:pageshadow="2" objecttolerance="10" showgrid="false" id="namedview3031" pagecolor="#ffffff" bordercolor="#666666" inkscape:cx="26.487741" inkscape:cy="13.184416" guidetolerance="10" gridtolerance="10" inkscape:zoom="1.4142136" borderopacity="1">
	</sodipodi:namedview>
<g id="g4201">
	<polygon id="polygon3021" fill="#FFFFFF" points="119.773,28.394 113.15,19.402 106.53,28.394 103.802,28.394 111.767,17.53 
		104.494,7.656 107.221,7.656 113.15,15.71 119.074,7.656 121.798,7.656 114.529,17.53 122.498,28.394 	"/>
	<path id="path3023" fill="#FFFFFF" d="M83.309,18.314c-0.433-0.369-0.902-0.654-1.358-0.865c1.505-0.817,2.492-2.361,2.492-4.152
		c0-1.327-0.489-5.641-6.741-5.641h-8.421v8.94h-2.806c-0.365,0.474-1.19,1.613-1.506,2.081h4.312v9.715l8.421,0.001
		c4.562,0,7.396-2.317,7.396-6.054C85.098,20.707,84.481,19.319,83.309,18.314 M71.609,9.82h6.093c1.65,0,4.411,0.411,4.411,3.296
		c0,2.181-1.609,3.481-4.411,3.481h-6.093V9.82z M77.701,26.23h-6.093v-7.55h6.093c2.311,0,5.074,0.638,5.074,3.614
		C82.776,25.717,79.598,26.23,77.701,26.23"/>
	<path id="path3025" fill="#FFFFFF" d="M96.051,7.177c-5.824,0-9.896,4.456-9.896,10.835c0,6.389,4.071,10.842,9.896,10.842
		c5.82,0,9.879-4.453,9.879-10.842C105.93,11.633,101.871,7.177,96.051,7.177 M96.051,26.66c-4.438,0-7.546-3.557-7.546-8.648
		c0-5.088,3.108-8.644,7.546-8.644c4.431,0,7.523,3.556,7.523,8.644C103.574,23.103,100.482,26.66,96.051,26.66"/>
	<polygon id="polygon3027" fill="#FFFFFF" points="68.148,28.392 60.176,17.529 67.45,7.656 64.725,7.656 58.795,15.712 
		52.87,7.656 50.153,7.656 57.422,17.529 49.451,28.392 52.182,28.392 58.799,19.402 65.42,28.392 	"/>
	<g id="g3055" transform="translate(-1.2833333,0.93333333)">
		<g id="g3923" transform="matrix(-1,0,0,1,61.715049,-34.927083)">
		</g>
		<g id="g4049">
			<g id="g4160" transform="translate(-2.125,35.625)">
				
					<path id="path3033" sodipodi:rx="14.35" sodipodi:cx="23.333334" sodipodi:cy="17.391666" sodipodi:ry="14.758333" sodipodi:type="arc" fill="#666666" d="
					M49.262-18.237c0,9.211-7.553,16.679-16.87,16.679s-16.87-7.468-16.87-16.679s7.553-16.679,16.87-16.679
					S49.262-27.449,49.262-18.237z"/>
				
					<radialGradient id="path3035_1_" cx="-958.9547" cy="1065.2799" r="14.35" gradientTransform="matrix(0 1.6935 1.5038 0 -1569.9087 1603.9501)" gradientUnits="userSpaceOnUse">
					<stop  offset="0" style="stop-color:#FFFFFF"/>
					<stop  offset="1" style="stop-color:#FFFFFF;stop-opacity:0"/>
				</radialGradient>
				
					<path id="path3035" sodipodi:rx="14.35" sodipodi:cx="23.333334" sodipodi:cy="17.391666" sodipodi:ry="14.758333" sodipodi:type="arc" fill="url(#path3035_1_)" d="
					M49.262-18.237c0,9.211-7.553,16.679-16.87,16.679s-16.87-7.468-16.87-16.679s7.553-16.679,16.87-16.679
					S49.262-27.449,49.262-18.237z"/>
				
					<radialGradient id="path3045_1_" cx="-958.9547" cy="1065.2799" r="14.35" gradientTransform="matrix(0 1.6935 1.5038 0 -1569.9087 1603.9501)" gradientUnits="userSpaceOnUse">
					<stop  offset="0" style="stop-color:#FFFFFF"/>
					<stop  offset="1" style="stop-color:#FFFFFF;stop-opacity:0"/>
				</radialGradient>
				
					<path id="path3045" sodipodi:rx="14.35" sodipodi:cx="23.333334" sodipodi:cy="17.391666" sodipodi:ry="14.758333" sodipodi:type="arc" fill="url(#path3045_1_)" d="
					M49.262-18.237c0,9.211-7.553,16.679-16.87,16.679s-16.87-7.468-16.87-16.679s7.553-16.679,16.87-16.679
					S49.262-27.449,49.262-18.237z"/>
				
					<radialGradient id="path3047_1_" cx="-958.9547" cy="1065.2799" r="14.35" gradientTransform="matrix(0 1.6935 1.5038 0 -1569.9087 1603.9501)" gradientUnits="userSpaceOnUse">
					<stop  offset="0" style="stop-color:#FFFFFF"/>
					<stop  offset="1" style="stop-color:#FFFFFF;stop-opacity:0"/>
				</radialGradient>
				
					<path id="path3047" sodipodi:rx="14.35" sodipodi:cx="23.333334" sodipodi:cy="17.391666" sodipodi:ry="14.758333" sodipodi:type="arc" fill="url(#path3047_1_)" d="
					M49.262-18.237c0,9.211-7.553,16.679-16.87,16.679s-16.87-7.468-16.87-16.679s7.553-16.679,16.87-16.679
					S49.262-27.449,49.262-18.237z"/>
				<g id="g4126" transform="translate(3.7995054e-7,0.05177686)">
					<g id="g4010" transform="matrix(1.0075011,0,0,1.0008426,-0.23709798,0.02715301)">
						<g id="g3951">
							<g id="g3917" transform="translate(1.334375,-34.927083)">
								<path id="path3900" sodipodi:nodetypes="ccccc" inkscape:connector-curvature="0" fill="#00A54D" d="M26.803,9.327
									c-1.848,2.256-9.593,11.425-8.906,17.625c0.478,0.61,1.005,1.18,1.562,1.719c-0.081-4.746,5.451-9.825,9.769-13.658
									L26.803,9.327z"/>
							</g>
							<g id="g3988" transform="translate(1.334375,-34.927083)">
								
									<linearGradient id="path3990_1_" gradientUnits="userSpaceOnUse" x1="-699.5527" y1="-415.5912" x2="-703.5081" y2="-410.9508" gradientTransform="matrix(1.0227 0 0 -1.0024 740.4366 -395.394)">
									<stop  offset="0" style="stop-color:#97CA43"/>
									<stop  offset="1" style="stop-color:#97CA43;stop-opacity:0"/>
								</linearGradient>
								<path id="path3990" sodipodi:nodetypes="ccccc" inkscape:connector-curvature="0" fill="url(#path3990_1_)" d="
									M26.803,9.327c-1.848,2.256-9.593,11.425-8.906,17.625c0.478,0.61,1.005,1.18,1.562,1.719
									c-0.081-4.746,5.451-9.825,9.769-13.658L26.803,9.327z"/>
							</g>
							<g id="g3888" transform="translate(1.196189,-34.89572)">
								<g id="g3876">
									<path id="path3089" sodipodi:nodetypes="cccccccc" inkscape:connector-curvature="0" fill="#02A74D" d="M22.397,2.421
										c-0.966,0.585-1.863,1.272-2.688,2.031c2.656,0.508,5.321,2.862,6.781,4.812c1.272,2.001,1.963,3.837,2.862,5.731
										c0.608-0.518,1.226-1.046,1.896-1.587l-0.004-8.227c-1.979-1.238-5.25-2.867-8.816-2.762
										C22.42,2.426,22.404,2.416,22.397,2.421z"/>
									
										<linearGradient id="path4000_1_" gradientUnits="userSpaceOnUse" x1="-699.1711" y1="-404.4951" x2="-695.5472" y2="-396.4518" gradientTransform="matrix(1.0227 0 0 -1.0024 740.0157 -395.4254)">
										<stop  offset="0" style="stop-color:#97CA43"/>
										<stop  offset="1" style="stop-color:#97CA43;stop-opacity:0"/>
									</linearGradient>
									<path id="path4000" sodipodi:nodetypes="cccccccc" inkscape:connector-curvature="0" fill="url(#path4000_1_)" d="
										M22.397,2.421c-0.966,0.585-1.863,1.272-2.688,2.031c2.656,0.508,5.321,2.862,6.781,4.812
										c1.272,2.001,1.963,3.837,2.862,5.731c0.608-0.518,1.226-1.046,1.896-1.587l-0.004-8.227
										c-1.979-1.238-5.25-2.867-8.816-2.762C22.42,2.426,22.404,2.416,22.397,2.421z"/>
								</g>
							</g>
						</g>
					</g>
					<g id="g4021" transform="matrix(-1.0041673,0,0,1.0016853,63.252358,0.05430602)">
						<g id="g4023">
							<g id="g4025" transform="translate(1.334375,-34.927083)">
								<path id="path4027" sodipodi:nodetypes="ccccc" inkscape:connector-curvature="0" fill="#00A54D" d="M25.128,9.327
									c-1.848,2.256-9.593,11.425-8.906,17.625c0.478,0.61,1.005,1.18,1.563,1.719c-0.081-4.746,5.451-9.825,9.769-13.658
									L25.128,9.327z"/>
							</g>
							<g id="g4029" transform="translate(1.334375,-34.927083)">
								
									<linearGradient id="path4031_1_" gradientUnits="userSpaceOnUse" x1="1312.9591" y1="-410.9619" x2="1309.0038" y2="-406.3216" gradientTransform="matrix(-1.0126 0 0 -1.0051 1350.985 -393.9646)">
									<stop  offset="0" style="stop-color:#97CA43"/>
									<stop  offset="1" style="stop-color:#97CA43;stop-opacity:0"/>
								</linearGradient>
								<path id="path4031" sodipodi:nodetypes="ccccc" inkscape:connector-curvature="0" fill="url(#path4031_1_)" d="
									M25.128,9.327c-1.848,2.256-9.593,11.425-8.906,17.625c0.478,0.61,1.005,1.18,1.563,1.719
									c-0.081-4.746,5.451-9.825,9.769-13.658L25.128,9.327z"/>
							</g>
							<g id="g4033" transform="translate(1.196189,-34.89572)">
								<g id="g4035">
									<path id="path4037" sodipodi:nodetypes="cccccccc" inkscape:connector-curvature="0" fill="#02A74D" d="M20.722,2.421
										c-0.966,0.585-1.863,1.272-2.688,2.031c2.656,0.508,5.321,2.862,6.781,4.813c1.272,2.001,1.963,3.837,2.862,5.731
										c0.608-0.518,1.226-1.046,1.896-1.587l-0.004-8.227c-1.979-1.238-5.25-2.867-8.816-2.762
										C20.745,2.426,20.729,2.416,20.722,2.421z"/>
									
										<linearGradient id="path4039_1_" gradientUnits="userSpaceOnUse" x1="1309.9071" y1="-399.4247" x2="1313.0029" y2="-394.3815" gradientTransform="matrix(-1.0126 0 0 -1.0051 1351.1243 -393.996)">
										<stop  offset="0" style="stop-color:#97CA43"/>
										<stop  offset="1" style="stop-color:#97CA43;stop-opacity:0"/>
									</linearGradient>
									<path id="path4039" sodipodi:nodetypes="cccccccc" inkscape:connector-curvature="0" fill="url(#path4039_1_)" d="
										M20.722,2.421c-0.966,0.585-1.863,1.272-2.688,2.031c2.656,0.508,5.321,2.862,6.781,4.813
										c1.272,2.001,1.963,3.837,2.862,5.731c0.608-0.518,1.226-1.046,1.896-1.587l-0.004-8.227
										c-1.979-1.238-5.25-2.867-8.816-2.762C20.745,2.426,20.729,2.416,20.722,2.421z"/>
								</g>
							</g>
						</g>
					</g>
				</g>
			</g>
		</g>
	</g>
</g>
</svg>
